<?xml version="1.0" standalone="no"?>
<!DOCTYPE svg PUBLIC "-//W3C//DTD SVG 20010904//EN"
 "http://www.w3.org/TR/2001/REC-SVG-20010904/DTD/svg10.dtd">
<svg version="1.0" xmlns="http://www.w3.org/2000/svg"
 width="500.000000pt" height="103.000000pt" viewBox="0 0 500.000000 103.000000"
 preserveAspectRatio="xMidYMid meet">

<g transform="translate(0.000000,103.000000) scale(0.100000,-0.100000)"
fill="#000000" stroke="none">
<path d="M190 525 l0 -325 325 0 325 0 0 325 0 325 -325 0 -325 0 0 -325z
m635 0 l0 -310 -310 0 -310 0 -3 300 c-1 165 0 306 3 313 3 10 70 12 312 10
l308 -3 0 -310z"/>
<path d="M535 638 c-9 -29 -65 -226 -65 -232 0 -3 6 -6 13 -6 10 0 78 214 77
243 0 12 -20 8 -25 -5z"/>
<path d="M392 577 c-23 -23 -42 -47 -42 -53 0 -14 73 -84 88 -84 20 0 14 14
-18 45 -16 16 -30 34 -30 40 0 6 16 26 35 45 30 30 37 50 16 50 -4 0 -26 -19
-49 -43z"/>
<path d="M585 610 c-5 -7 7 -26 29 -48 l36 -36 -37 -38 c-25 -25 -34 -41 -27
-48 7 -7 26 6 57 38 l47 48 -49 48 c-33 33 -51 44 -56 36z"/>
<path d="M1480 736 l0 -113 59 -2 c68 -1 80 8 88 68 4 29 1 48 -12 67 -15 23
-22 25 -61 22 l-44 -3 0 37 c0 27 -4 38 -15 38 -12 0 -15 -19 -15 -114z m114
-8 c14 -40 -3 -82 -34 -86 -42 -6 -65 51 -39 99 16 30 61 22 73 -13z"/>
<path d="M2480 735 c0 -96 3 -115 15 -115 12 0 15 19 15 115 0 96 -3 115 -15
115 -12 0 -15 -19 -15 -115z"/>
<path d="M3340 700 c0 -93 4 -150 10 -150 6 0 10 57 10 150 0 93 -4 150 -10
150 -6 0 -10 -57 -10 -150z"/>
<path d="M4150 735 c0 -96 3 -115 15 -115 12 0 15 19 15 115 0 96 -3 115 -15
115 -12 0 -15 -19 -15 -115z"/>
<path d="M1020 833 c0 -4 12 -54 27 -111 33 -128 46 -130 82 -13 l26 83 24
-86 c30 -112 47 -112 78 -1 35 127 37 135 20 135 -10 0 -21 -23 -32 -67 -10
-38 -21 -74 -25 -81 -3 -7 -17 24 -29 68 -30 103 -46 103 -75 3 -11 -40 -23
-73 -26 -73 -3 0 -14 32 -25 72 -11 39 -26 73 -32 76 -7 2 -13 0 -13 -5z"/>
<path d="M1770 730 l0 -110 56 0 c48 0 59 4 85 29 24 24 29 38 29 76 0 25 -7
57 -16 70 -17 26 -68 45 -121 45 l-33 0 0 -110z m120 60 c25 -25 27 -89 3
-119 -10 -12 -35 -24 -55 -28 l-38 -6 0 87 0 86 35 0 c22 0 43 -8 55 -20z"/>
<path d="M3547 834 c-4 -4 -7 -54 -7 -111 0 -85 3 -103 15 -103 11 0 15 12 15
45 l0 45 45 0 c25 0 45 5 45 10 0 6 -20 10 -45 10 l-45 0 0 40 0 40 51 0 c36
0 49 4 47 13 -5 13 -109 23 -121 11z"/>
<path d="M1327 762 c-11 -12 -17 -36 -17 -64 0 -59 22 -80 81 -76 56 4 64 25
8 24 -32 -1 -44 4 -56 22 -15 22 -15 22 41 22 55 0 56 0 56 29 0 16 -7 37 -16
45 -21 22 -77 20 -97 -2z m81 -24 c3 -15 -4 -18 -32 -18 -34 0 -47 15 -29 34
13 13 58 1 61 -16z"/>
<path d="M1997 762 c-11 -12 -17 -36 -17 -64 0 -59 22 -80 81 -76 56 4 64 25
8 24 -32 -1 -44 4 -56 22 -15 22 -15 22 41 22 55 0 56 0 56 29 0 16 -7 37 -16
45 -21 22 -77 20 -97 -2z m81 -24 c3 -15 -4 -18 -32 -18 -34 0 -47 15 -29 34
13 13 58 1 61 -16z"/>
<path d="M2135 760 c3 -11 17 -46 30 -77 31 -76 49 -76 80 0 36 88 38 97 22
97 -9 0 -25 -27 -40 -67 -14 -38 -26 -63 -26 -56 -2 32 -44 123 -57 123 -11 0
-13 -6 -9 -20z"/>
<path d="M2317 762 c-11 -12 -17 -36 -17 -64 0 -59 22 -80 81 -76 56 4 64 25
8 24 -32 -1 -44 4 -56 22 -15 22 -15 22 41 22 55 0 56 0 56 29 0 16 -7 37 -16
45 -21 22 -77 20 -97 -2z m81 -24 c3 -15 -4 -18 -32 -18 -34 0 -47 15 -29 34
13 13 58 1 61 -16z"/>
<path d="M2570 760 c-27 -27 -27 -89 0 -118 27 -29 83 -29 110 -2 24 24 27 86
4 118 -20 29 -85 31 -114 2z m88 -12 c16 -16 16 -80 0 -96 -18 -18 -56 -14
-68 7 -14 26 -13 74 2 89 7 7 21 12 33 12 12 0 26 -5 33 -12z"/>
<path d="M2740 663 c0 -94 3 -113 15 -113 11 0 15 11 15 38 0 38 0 38 35 34
52 -6 75 18 75 78 0 63 -20 81 -88 78 l-52 -2 0 -113z m108 65 c24 -51 -24
-110 -63 -78 -18 15 -20 81 -3 98 20 20 52 10 66 -20z"/>
<path d="M2937 762 c-11 -12 -17 -36 -17 -64 0 -59 22 -80 81 -76 56 4 64 25
8 24 -32 -1 -44 4 -56 22 -15 22 -15 22 41 22 55 0 56 0 56 29 0 16 -7 37 -16
45 -21 22 -77 20 -97 -2z m81 -24 c3 -15 -4 -18 -32 -18 -34 0 -47 15 -29 34
13 13 58 1 61 -16z"/>
<path d="M3090 700 c0 -64 3 -80 15 -80 11 0 15 12 15 48 0 53 21 92 51 92 10
0 19 5 19 10 0 14 -43 13 -58 -2 -9 -9 -12 -9 -12 0 0 7 -7 12 -15 12 -12 0
-15 -16 -15 -80z"/>
<path d="M3690 700 c0 -64 3 -80 15 -80 11 0 15 12 15 48 0 53 21 92 51 92 10
0 19 5 19 10 0 14 -43 13 -58 -2 -9 -9 -12 -9 -12 0 0 7 -7 12 -15 12 -12 0
-15 -16 -15 -80z"/>
<path d="M3827 762 c-11 -12 -17 -36 -17 -64 0 -59 22 -80 81 -76 56 4 64 25
8 24 -32 -1 -44 4 -56 22 -15 22 -15 22 41 22 55 0 56 0 56 29 0 16 -7 37 -16
45 -21 22 -77 20 -97 -2z m81 -24 c3 -15 -4 -18 -32 -18 -34 0 -47 15 -29 34
13 13 58 1 61 -16z"/>
<path d="M3997 762 c-11 -12 -17 -36 -17 -64 0 -59 22 -80 81 -76 56 4 64 25
8 24 -32 -1 -44 4 -56 22 -15 22 -15 22 41 22 55 0 56 0 56 29 0 16 -7 37 -16
45 -21 22 -77 20 -97 -2z m81 -24 c3 -15 -4 -18 -32 -18 -34 0 -47 15 -29 34
13 13 58 1 61 -16z"/>
<path d="M4240 766 c0 -9 12 -13 37 -12 56 2 57 -27 2 -40 -49 -11 -65 -30
-55 -68 6 -25 9 -26 66 -24 l60 2 0 66 c0 38 -5 71 -12 78 -17 17 -98 16 -98
-2z m80 -84 c0 -25 -19 -42 -47 -42 -18 0 -23 6 -23 24 0 24 13 32 53 35 10 1
17 -6 17 -17z"/>
<path d="M4390 699 c0 -64 3 -79 15 -79 11 0 15 13 15 53 0 63 16 90 51 85 22
-3 24 -7 27 -70 2 -52 6 -68 17 -68 20 0 21 132 1 149 -7 6 -38 10 -70 10
l-56 -2 0 -78z"/>
<path d="M4586 758 c-9 -12 -16 -38 -16 -58 0 -56 23 -80 76 -80 31 0 44 4 42
12 -3 7 -20 12 -38 12 -28 1 -36 6 -44 29 -6 17 -6 37 0 55 8 22 16 27 44 28
18 0 35 5 38 12 2 8 -11 12 -42 12 -35 0 -48 -5 -60 -22z"/>
<path d="M4737 762 c-11 -12 -17 -36 -17 -64 0 -59 22 -80 81 -76 56 4 64 25
8 24 -32 -1 -44 4 -56 22 -15 22 -15 22 41 22 55 0 56 0 56 29 0 16 -7 37 -16
45 -21 22 -77 20 -97 -2z m81 -24 c3 -15 -4 -18 -32 -18 -34 0 -47 15 -29 34
13 13 58 1 61 -16z"/>
<path d="M1660 700 c0 -5 16 -10 35 -10 19 0 35 5 35 10 0 6 -16 10 -35 10
-19 0 -35 -4 -35 -10z"/>
<path d="M1680 375 c0 -96 3 -115 15 -115 12 0 15 19 15 115 0 96 -3 115 -15
115 -12 0 -15 -19 -15 -115z"/>
<path d="M2380 340 c0 -93 4 -150 10 -150 6 0 10 57 10 150 0 93 -4 150 -10
150 -6 0 -10 -57 -10 -150z"/>
<path d="M1095 471 c-42 -18 -60 -50 -60 -108 0 -48 4 -58 28 -79 23 -20 39
-24 88 -24 l59 0 0 55 0 55 -35 0 c-19 0 -35 -4 -35 -10 0 -5 12 -10 26 -10
23 0 25 -3 22 -32 -3 -30 -6 -33 -39 -36 -48 -4 -79 22 -86 73 -4 31 0 46 17
68 20 25 28 28 73 26 30 -2 52 1 54 8 7 20 -72 30 -112 14z"/>
<path d="M1260 465 c0 -8 7 -15 15 -15 8 0 15 7 15 15 0 8 -7 15 -15 15 -8 0
-15 -7 -15 -15z"/>
<path d="M2580 371 c0 -92 3 -111 15 -111 11 0 15 11 15 39 0 37 1 39 39 45
41 6 71 35 71 67 0 34 -33 59 -87 66 l-53 6 0 -112z m100 59 c16 -30 -4 -60
-40 -60 -28 0 -30 2 -30 40 0 38 2 40 30 40 19 0 33 -7 40 -20z"/>
<path d="M3068 438 c-13 -19 -23 -24 -42 -21 -15 3 -33 0 -41 -7 -10 -9 -15
-9 -15 -1 0 6 -7 11 -15 11 -12 0 -15 -16 -15 -80 0 -64 3 -80 15 -80 11 0 15
12 15 48 0 63 21 92 65 92 l34 0 3 -67 3 -68 33 -3 c18 -2 32 1 32 7 0 6 -9
11 -19 11 -23 0 -31 19 -31 76 0 40 2 44 25 44 14 0 25 5 25 10 0 6 -11 10
-24 10 -18 0 -26 6 -28 22 -3 22 -3 22 -20 -4z"/>
<path d="M1260 340 c0 -64 3 -80 15 -80 12 0 15 16 15 80 0 64 -3 80 -15 80
-12 0 -15 -16 -15 -80z"/>
<path d="M1347 414 c-14 -14 5 -23 34 -17 21 4 34 1 40 -8 13 -21 11 -29 -10
-29 -10 0 -32 -5 -50 -11 -35 -12 -51 -50 -31 -74 15 -18 71 -20 88 -3 9 9 12
9 12 0 0 -7 5 -12 10 -12 7 0 10 29 8 78 l-3 77 -45 3 c-25 2 -49 0 -53 -4z
m78 -84 c3 -5 1 -19 -5 -30 -14 -26 -63 -24 -68 3 -5 25 59 49 73 27z"/>
<path d="M1500 338 c0 -63 3 -78 15 -78 12 0 15 13 15 58 0 62 11 82 46 82 27
0 34 -17 34 -86 0 -41 4 -54 15 -54 12 0 15 13 15 61 0 90 -9 100 -80 97 l-60
-2 0 -78z"/>
<path d="M1760 351 c0 -82 8 -92 79 -89 l51 2 0 78 c0 45 -4 78 -10 78 -5 0
-10 -23 -10 -51 0 -63 -13 -89 -46 -89 -30 0 -44 31 -44 96 0 24 -4 44 -10 44
-6 0 -10 -30 -10 -69z"/>
<path d="M1957 402 c-24 -26 -23 -104 1 -125 22 -20 92 -23 92 -4 0 7 -13 12
-32 12 -24 0 -36 6 -47 28 -15 24 -15 30 0 55 11 21 23 27 47 27 19 0 32 5 32
12 0 21 -74 16 -93 -5z"/>
<path d="M2100 406 c0 -9 12 -13 37 -12 56 2 57 -27 2 -40 -49 -11 -65 -30
-55 -68 6 -25 9 -26 66 -24 l60 2 0 66 c0 38 -5 71 -12 78 -17 17 -98 16 -98
-2z m80 -84 c0 -25 -19 -42 -47 -42 -18 0 -23 6 -23 24 0 24 13 32 53 35 10 1
17 -6 17 -17z"/>
<path d="M2777 402 c-11 -12 -17 -36 -17 -64 0 -55 22 -78 72 -78 46 0 73 29
73 80 0 52 -27 80 -75 80 -23 0 -43 -7 -53 -18z m94 -29 c25 -67 -32 -124 -74
-72 -20 25 -17 76 6 91 26 17 57 8 68 -19z"/>
<path d="M3187 414 c-14 -14 5 -23 34 -17 21 4 34 1 40 -8 13 -21 11 -29 -10
-29 -10 0 -32 -5 -50 -11 -35 -12 -51 -50 -31 -74 15 -18 71 -20 88 -3 9 9 12
9 12 0 0 -7 5 -12 10 -12 7 0 10 29 8 78 l-3 77 -45 3 c-25 2 -49 0 -53 -4z
m78 -84 c3 -5 1 -19 -5 -30 -14 -26 -63 -24 -68 3 -5 25 59 49 73 27z"/>
</g>
</svg>
