<?xml version="1.0" encoding="utf-8"?>
<!-- Generator: $$$/GeneralStr/196=Adobe Illustrator 27.6.0, SVG Export Plug-In . SVG Version: 6.00 Build 0)  -->
<!DOCTYPE svg PUBLIC "-//W3C//DTD SVG 1.1//EN" "http://www.w3.org/Graphics/SVG/1.1/DTD/svg11.dtd" [
	<!ENTITY ns_extend "http://ns.adobe.com/Extensibility/1.0/">
	<!ENTITY ns_ai "http://ns.adobe.com/AdobeIllustrator/10.0/">
	<!ENTITY ns_graphs "http://ns.adobe.com/Graphs/1.0/">
	<!ENTITY ns_vars "http://ns.adobe.com/Variables/1.0/">
	<!ENTITY ns_imrep "http://ns.adobe.com/ImageReplacement/1.0/">
	<!ENTITY ns_sfw "http://ns.adobe.com/SaveForWeb/1.0/">
	<!ENTITY ns_custom "http://ns.adobe.com/GenericCustomNamespace/1.0/">
	<!ENTITY ns_adobe_xpath "http://ns.adobe.com/XPath/1.0/">
]>
<svg version="1.1" id="Livello_1" xmlns:x="&ns_extend;" xmlns:i="&ns_ai;" xmlns:graph="&ns_graphs;"
	 xmlns="http://www.w3.org/2000/svg" xmlns:xlink="http://www.w3.org/1999/xlink" x="0px" y="0px" width="1000px" height="122px"
	 viewBox="0 0 1000 122" style="enable-background:new 0 0 1000 122;" xml:space="preserve">
<style type="text/css">
	.st0{fill:#3E287C;}
	.st1{fill:#FF5841;}
</style>
<metadata>
	<sfw  xmlns="&ns_sfw;">
		<slices></slices>
		<sliceSourceBounds  bottomLeftOrigin="true" height="121.7" width="1000" x="0" y="-560.6"></sliceSourceBounds>
	</sfw>
</metadata>
<g>
	<g>
		<path class="st0" d="M44.5,45.8H30.7v23.6c0,2.7,1.1,4.4,3.2,5.1c2.1,0.7,5.7,0.9,10.6,0.7v18.2c-12.7,1.3-21.6,0.1-26.5-3.7
			c-4.9-3.8-7.3-10.5-7.3-20.2V45.8H0V26.6h10.7V13.9l20-6v18.7h13.8V45.8z"/>
		<path class="st0" d="M95,24.7c7.1,0,13.1,2.5,17.8,7.3c4.8,4.9,7.1,11.7,7.1,20.3v41h-20V55.3c0-3.9-1.1-6.9-3.3-9
			c-2.2-2.1-5-3.1-8.4-3.1c-3.8,0-6.9,1.2-9.1,3.5c-2.2,2.3-3.3,5.7-3.3,10.3v36.5h-20V-0.1h20v33C79.9,27.4,86.3,24.7,95,24.7z"/>
		<path class="st0" d="M153.8,38.5c1.2-4.3,3.8-7.5,7.5-9.8c3.8-2.3,8-3.4,12.5-3.4V48c-4.9-0.8-9.5,0-13.7,2.5
			c-4.2,2.5-6.3,6.7-6.3,12.8v30.2h-20V26.6h20V38.5z"/>
		<path class="st0" d="M199.1,68c2.3,6.2,7.7,9.4,16,9.4c5.4,0,9.7-1.7,12.8-5.1l16,9.2c-6.6,9.2-16.3,13.8-29.1,13.8
			c-11.2,0-20.2-3.3-26.9-10c-6.7-6.7-10.1-15.1-10.1-25.3c0-10.1,3.3-18.5,10-25.2c6.6-6.7,15.2-10.1,25.6-10.1
			c9.7,0,17.8,3.4,24.2,10.1c6.5,6.7,9.7,15.1,9.7,25.2c0,2.9-0.3,5.5-0.8,8H199.1z M198.7,53h28.7c-2-7-6.7-10.6-14.2-10.6
			C205.5,42.5,200.6,46,198.7,53z"/>
		<path class="st0" d="M275.9,68c2.3,6.2,7.7,9.4,16,9.4c5.4,0,9.7-1.7,12.8-5.1l16,9.2c-6.6,9.2-16.3,13.8-29.1,13.8
			c-11.2,0-20.2-3.3-26.9-10c-6.7-6.7-10.1-15.1-10.1-25.3c0-10.1,3.3-18.5,10-25.2c6.6-6.7,15.2-10.1,25.6-10.1
			c9.7,0,17.8,3.4,24.2,10.1c6.5,6.7,9.7,15.1,9.7,25.2c0,2.9-0.3,5.5-0.8,8H275.9z M275.5,53h28.7c-2-7-6.7-10.6-14.2-10.6
			C282.3,42.5,277.4,46,275.5,53z"/>
	</g>
	<g>
		<g>
			<path class="st0" d="M490.4,83.4c-6.9,6.8-15.2,10.2-25.1,10.2c-9.9,0-18.3-3.4-25.1-10.2c-6.9-6.8-10.3-15.2-10.3-25.1
				s3.4-18.2,10.3-25.1c6.9-6.8,15.2-10.2,25.1-10.2c9.9,0,18.3,3.4,25.1,10.2c6.9,6.8,10.3,15.2,10.3,25.1S497.3,76.6,490.4,83.4z
				 M454.4,69.7c2.9,2.9,6.6,4.4,11,4.4c4.4,0,8-1.5,11-4.4c2.9-2.9,4.4-6.7,4.4-11.4c0-4.6-1.5-8.4-4.4-11.4
				c-2.9-2.9-6.6-4.4-11-4.4c-4.4,0-8,1.5-11,4.4c-2.9,2.9-4.4,6.7-4.4,11.4C450,63,451.4,66.8,454.4,69.7z"/>
			<path class="st0" d="M586.9,23.1c7.7,0,13.8,2.5,18.4,7.5c4.6,5,6.9,11.7,6.9,20.1v41h-20V52.5c0-3.4-0.8-6.1-2.5-8
				c-1.6-2-4-2.9-7.1-2.9c-3.3,0-5.9,1.1-7.7,3.3c-1.8,2.2-2.7,5.3-2.7,9.2v37.7h-20V52.5c0-3.4-0.8-6.1-2.5-8c-1.6-2-4-2.9-7.1-2.9
				c-3.3,0-5.9,1.1-7.7,3.3c-1.8,2.2-2.7,5.3-2.7,9.2v37.7h-20V25h20v6.1c3.7-5.3,9.6-8,17.9-8c7.7,0,13.6,2.9,17.5,8.8
				C571.6,26.1,578.1,23.1,586.9,23.1z"/>
			<path class="st0" d="M700.9,23.1c7.7,0,13.8,2.5,18.4,7.5c4.6,5,6.9,11.7,6.9,20.1v41h-20V52.5c0-3.4-0.8-6.1-2.5-8
				c-1.6-2-4-2.9-7.1-2.9c-3.3,0-5.9,1.1-7.7,3.3c-1.8,2.2-2.7,5.3-2.7,9.2v37.7h-20V52.5c0-3.4-0.8-6.1-2.5-8c-1.6-2-4-2.9-7.1-2.9
				c-3.3,0-5.9,1.1-7.7,3.3c-1.8,2.2-2.7,5.3-2.7,9.2v37.7h-20V25h20v6.1c3.7-5.3,9.6-8,17.9-8c7.7,0,13.6,2.9,17.5,8.8
				C685.6,26.1,692.1,23.1,700.9,23.1z"/>
			<path class="st0" d="M757.9,66.4c2.3,6.2,7.7,9.4,16,9.4c5.4,0,9.7-1.7,12.8-5.1l16,9.2c-6.6,9.2-16.3,13.8-29.1,13.8
				c-11.2,0-20.2-3.3-26.9-10c-6.7-6.7-10.1-15.1-10.1-25.3c0-10.1,3.3-18.5,10-25.2c6.6-6.7,15.2-10.1,25.6-10.1
				c9.7,0,17.8,3.4,24.2,10.1c6.5,6.7,9.7,15.1,9.7,25.2c0,2.9-0.3,5.5-0.8,8H757.9z M757.5,51.4h28.7c-2-7-6.7-10.6-14.2-10.6
				C764.3,40.9,759.5,44.4,757.5,51.4z"/>
			<path class="st0" d="M837.5,36.9c1.2-4.3,3.8-7.5,7.5-9.8c3.8-2.3,7.9-3.4,12.5-3.4v22.7c-4.9-0.8-9.5,0-13.7,2.5
				c-4.2,2.5-6.3,6.7-6.3,12.8v30.2h-20V25h20V36.9z"/>
			<path class="st0" d="M897,93.7c-10.2,0-18.6-3.4-25.3-10.2c-6.7-6.8-10.1-15.1-10.1-25.1c0-10,3.4-18.3,10.1-25.1
				c6.7-6.8,15.2-10.2,25.3-10.2c6.4,0,12.3,1.6,17.7,4.7c5.4,3.1,9.6,7.3,12.5,12.4l-17.5,10.2c-2.4-5-6.7-7.5-13-7.5
				c-4.4,0-8,1.4-10.8,4.3c-2.9,2.9-4.3,6.6-4.3,11.2s1.4,8.3,4.3,11.2c2.8,2.9,6.5,4.3,10.8,4.3c6.3,0,10.6-2.5,13-7.5l17.5,10
				c-2.9,5.3-7.1,9.4-12.4,12.6S903.5,93.7,897,93.7z"/>
			<path class="st0" d="M951.8,66.4c2.3,6.2,7.7,9.4,16,9.4c5.4,0,9.7-1.7,12.8-5.1l16,9.2c-6.6,9.2-16.3,13.8-29.1,13.8
				c-11.2,0-20.2-3.3-26.9-10c-6.7-6.7-10.1-15.1-10.1-25.3c0-10.1,3.3-18.5,10-25.2c6.6-6.7,15.2-10.1,25.6-10.1
				c9.7,0,17.8,3.4,24.2,10.1c6.5,6.7,9.7,15.1,9.7,25.2c0,2.9-0.3,5.5-0.8,8H951.8z M951.4,51.4h28.7c-2-7-6.7-10.6-14.2-10.6
				C958.2,40.9,953.3,44.4,951.4,51.4z"/>
		</g>
		<g>
			<circle class="st1" cx="371" cy="110.3" r="11.2"/>
			<circle class="st1" cx="412.6" cy="110.3" r="11.2"/>
			<path class="st1" d="M425.7,88.5c-0.8-0.8-1.4-1.6-2-2.5c-1.6-2-2.9-4.4-3.9-7c-2.5-0.1-10.8-0.3-19.6,0l-14.5-0.2
				c-11-0.6-14.3-0.3-20.6-9c-1.9-2.7-3.5-5.5-4.6-8.6c-1.3-3.5-3.1-10.1-4.2-13.7c-0.9-3-4.1-14.3-5.4-17.3
				c-4.2-9.5-10.4-14.8-18.5-19h0c-20.2-8.1-31.4,1.1-32.7,2.3c1,0.1,2,0.3,3,0.5c13.5,1.2,26.4,7.5,32.3,20.2
				c1.7,3.7,4.6,13,5.2,17.8c2.5,18.4,14.3,43.7,38.4,43.7l56.4,0.2C431.2,93.7,429.6,92.4,425.7,88.5z"/>
			<path class="st1" d="M352.9,23.1c3.2,4.5,4.8,10.1,5.7,16.1H422c3.1-7.1,7.5-12.4,12.9-16.1H352.9z"/>
		</g>
	</g>
</g>
</svg>
